<?xml version="1.0" encoding="UTF-8" standalone="no"?>
<!-- Created with Inkscape (http://www.inkscape.org/) -->

<svg
   xmlns:dc="http://purl.org/dc/elements/1.1/"
   xmlns:cc="http://creativecommons.org/ns#"
   xmlns:rdf="http://www.w3.org/1999/02/22-rdf-syntax-ns#"
   xmlns:svg="http://www.w3.org/2000/svg"
   xmlns="http://www.w3.org/2000/svg"
   xmlns:sodipodi="http://sodipodi.sourceforge.net/DTD/sodipodi-0.dtd"
   xmlns:inkscape="http://www.inkscape.org/namespaces/inkscape"
   width="257.30621mm"
   height="164.76645mm"
   viewBox="0 0 257.30621 164.76645"
   version="1.1"
   id="svg8"
   inkscape:version="0.92.5 (2060ec1f9f, 2020-04-08)"
   sodipodi:docname="thought-balloons.svg">
  <defs
     id="defs2" />
  <sodipodi:namedview
     id="base"
     pagecolor="#ffffff"
     bordercolor="#666666"
     borderopacity="1.0"
     inkscape:pageopacity="0.0"
     inkscape:pageshadow="2"
     inkscape:zoom="0.7"
     inkscape:cx="228.93226"
     inkscape:cy="157.32666"
     inkscape:document-units="mm"
     inkscape:current-layer="g978"
     showgrid="false"
     inkscape:snap-nodes="false"
     fit-margin-top="5"
     fit-margin-left="5"
     fit-margin-right="5"
     fit-margin-bottom="5"
     inkscape:window-width="1555"
     inkscape:window-height="951"
     inkscape:window-x="190"
     inkscape:window-y="110"
     inkscape:window-maximized="0" />
  <metadata
     id="metadata5">
    <rdf:RDF>
      <cc:Work
         rdf:about="">
        <dc:format>image/svg+xml</dc:format>
        <dc:type
           rdf:resource="http://purl.org/dc/dcmitype/StillImage" />
        <dc:title />
      </cc:Work>
    </rdf:RDF>
  </metadata>
  <g
     inkscape:label="Layer 1"
     inkscape:groupmode="layer"
     id="layer1"
     transform="translate(23.06693,-47.157424)">
    <path
       style="opacity:1;vector-effect:none;fill:#ffffff;fill-opacity:1;fill-rule:evenodd;stroke:#000000;stroke-width:2.00000024;stroke-linecap:butt;stroke-linejoin:miter;stroke-miterlimit:4;stroke-dasharray:none;stroke-dashoffset:0;stroke-opacity:1"
       d="M 467.83398 19.921875 A 32.857145 72.857139 81.020551 0 0 446.33984 21.832031 A 32.857145 72.857139 81.020551 0 0 406.05469 34.242188 A 30.714284 73.571423 79.820557 0 0 332.4668 24.771484 A 30.714284 73.571423 79.820557 0 0 281.08594 44.042969 A 64.999998 103.57142 79.129716 0 0 207.02734 39.619141 A 64.999998 103.57142 79.129716 0 0 117.57227 122.98633 A 64.999998 103.57142 79.129716 0 0 123.20117 137.04883 A 33.571429 58.571427 61.106063 0 0 102.38867 145.60938 A 33.571429 58.571427 61.106063 0 0 67.330078 203.30273 A 33.571429 58.571427 61.106063 0 0 72.796875 209.51758 A 35.000001 34.285713 0 0 0 70.039062 222.85938 A 35.000001 34.285713 0 0 0 83.277344 249.69336 A 84.285711 46.428569 13.133649 0 0 70.775391 267.1582 A 84.285711 46.428569 13.133649 0 0 132.7207 328.91992 A 51.428569 68.571426 83.343015 0 0 131.92969 342.23633 A 51.428569 68.571426 83.343015 0 0 206 385.36914 A 51.428569 68.571426 83.343015 0 0 233.66016 377.42383 A 39.999998 27.142855 0 0 0 268.60938 391.42969 A 39.999998 27.142855 0 0 0 286.92383 388.41016 A 39.285714 72.857139 79.40548 0 0 362.97656 406.47461 A 39.285714 72.857139 79.40548 0 0 404.83008 390.45898 A 345 172.14287 0 0 0 425.79297 391.05664 A 62.142852 43.57143 9.0225608 0 0 472.49219 416.60547 A 62.142852 43.57143 9.0225608 0 0 539.80469 387.15625 A 44.285711 87.142862 78.426352 0 0 597.49414 386.24414 A 44.285711 87.142862 78.426352 0 0 654.41992 361.83203 A 45.714287 55.714286 74.414428 0 0 715.17773 379.75 A 45.714287 55.714286 74.414428 0 0 757.57422 325.82617 A 44.999999 32.857145 73.65794 0 0 759.84375 325.32617 A 44.999999 32.857145 73.65794 0 0 778.71094 272.89844 A 44.999999 32.857145 73.65794 0 0 778.67578 272.78711 A 35.714286 37.857142 0 0 0 780.03906 272.85938 A 35.714286 37.857142 0 0 0 815.75391 235.00195 A 35.714286 37.857142 0 0 0 785.83203 197.68945 A 42.857142 42.142854 46.701796 0 0 782.13867 143.24219 A 42.857142 42.142854 46.701796 0 0 779.25391 140.47266 A 55.714287 71.428571 82.031075 0 0 785.02539 111.4082 A 55.714287 71.428571 82.031075 0 0 706.5625 66.134766 A 55.714287 71.428571 82.031075 0 0 699.56445 67.451172 A 47.857144 62.857144 73.170383 0 0 627.61133 44.908203 A 47.857144 62.857144 73.170383 0 0 599.99805 59.705078 A 51.428569 44.285711 0 0 0 550.03906 25.714844 A 51.428569 44.285711 0 0 0 519.32617 34.537109 A 32.857145 72.857139 81.020551 0 0 467.83398 19.921875 z "
       transform="matrix(0.26458333,0,0,0.26458333,-23.06693,47.157424)"
       id="path908" />
    <g
       id="g978"
       transform="translate(-0.16020916,-1.5147025)"
       style="">
      <text
         id="text817"
         y="76.82888"
         x="17.953882"
         style="font-style:normal;font-variant:normal;font-weight:normal;font-stretch:normal;font-size:6.3499999px;line-height:1.10000002;font-family:'DejaVu Sans';-inkscape-font-specification:'DejaVu Sans';text-align:start;letter-spacing:0px;word-spacing:0px;text-anchor:start;fill:#000000;fill-opacity:1;stroke:none;stroke-width:0.26458332"
         xml:space="preserve"><tspan
           style="line-height:1.10000002;stroke-width:0.26458332"
           y="76.82888"
           x="17.953882"
           id="tspan815"
           sodipodi:role="line">My iterative algorithm really can't be columnar.</tspan></text>
      <text
         xml:space="preserve"
         style="font-style:normal;font-variant:normal;font-weight:normal;font-stretch:normal;font-size:6.3499999px;line-height:1.10000002;font-family:'DejaVu Sans';-inkscape-font-specification:'DejaVu Sans';text-align:start;letter-spacing:0px;word-spacing:0px;text-anchor:start;fill:#000000;fill-opacity:1;stroke:none;stroke-width:0.26458332"
         x="17.953882"
         y="89.68763"
         id="text821"><tspan
           sodipodi:role="line"
           id="tspan819"
           x="17.953882"
           y="89.68763"
           style="line-height:1.10000002;stroke-width:0.26458332">I could try to write a Numba function for it, but I</tspan><tspan
           id="tspan823"
           sodipodi:role="line"
           x="17.953882"
           y="96.67263"
           style="line-height:1.10000002;stroke-width:0.26458332">keep running into huge type error messages for</tspan><tspan
           id="tspan825"
           sodipodi:role="line"
           x="17.953882"
           y="103.65763"
           style="line-height:1.10000002;stroke-width:0.26458332">code that works in uncompiled Python.</tspan></text>
      <text
         id="text833"
         y="116.51638"
         x="17.953882"
         style="font-style:normal;font-variant:normal;font-weight:normal;font-stretch:normal;font-size:6.3499999px;line-height:1.10000002;font-family:'DejaVu Sans';-inkscape-font-specification:'DejaVu Sans';text-align:start;letter-spacing:0px;word-spacing:0px;text-anchor:start;fill:#000000;fill-opacity:1;stroke:none;stroke-width:0.26458332"
         xml:space="preserve"><tspan
           style="line-height:1.10000002;stroke-width:0.26458332"
           y="116.51638"
           x="17.953882"
           sodipodi:role="line"
           id="tspan831">Or I could try writing a Julia function. The syntax</tspan><tspan
           id="tspan877"
           style="line-height:1.10000002;stroke-width:0.26458332"
           y="123.50138"
           x="17.953882"
           sodipodi:role="line">is a little different and needs to be in a separate</tspan><tspan
           id="tspan881"
           style="line-height:1.10000002;stroke-width:0.26458332"
           y="130.48637"
           x="17.953882"
           sodipodi:role="line">file or string, but the error messages make more</tspan><tspan
           id="tspan883"
           style="line-height:1.10000002;stroke-width:0.26458332"
           y="137.47137"
           x="17.953882"
           sodipodi:role="line">sense, and it always works if it's valid Julia code.</tspan></text>
    </g>
    <path
       style="opacity:1;vector-effect:none;fill:#ffffff;fill-opacity:1;fill-rule:evenodd;stroke:#000000;stroke-width:0.5291667;stroke-linecap:butt;stroke-linejoin:miter;stroke-miterlimit:4;stroke-dasharray:none;stroke-dashoffset:0;stroke-opacity:1"
       d="m 115.38957,153.97928 a 9.4494045,14.174107 71.290041 0 0 -6.80734,1.08417 9.4494045,14.174107 71.290041 0 0 -8.42119,5.61052 6.614583,17.953869 83.040228 0 0 -17.69711,-2.65928 6.614583,17.953869 83.040228 0 0 -13.4953,4.0964 14.363094,9.4494045 15.718866 0 0 -6.388759,-3.03599 14.363094,9.4494045 15.718866 0 0 -16.386079,5.20484 14.363094,9.4494045 15.718866 0 0 1.250053,6.24665 7.181547,10.394345 64.524882 0 0 -5.312338,10.43089 7.181547,10.394345 64.524882 0 0 7.292062,3.37447 11.90625,10.772322 0 0 0 -0.05736,1.03715 11.90625,10.772322 0 0 0 11.90625,10.77247 11.90625,10.772322 0 0 0 8.272879,-3.02721 10.205357,10.583333 0 0 0 7.483265,3.40496 10.205357,10.583333 0 0 0 7.488431,-3.41168 17.008928,9.0714281 10.766343 0 0 8.959659,3.252 17.008928,9.0714281 10.766343 0 0 17.789617,-4.13618 7.181547,8.315476 0 0 0 4.69377,2.0283 7.181547,8.315476 0 0 0 3.21168,-0.88108 10.394345,15.875 78.08309 0 0 17.07751,5.19244 10.394345,15.875 78.08309 0 0 12.14138,-7.55561 11.90625,6.8035712 15.440148 0 0 7.14685,3.75429 11.90625,6.8035712 15.440148 0 0 13.28756,-3.3879 11.90625,6.8035712 15.440148 0 0 0.009,-0.045 11.150297,7.9374999 0 0 0 8.16901,2.54455 11.150297,7.9374999 0 0 0 8.89093,-3.16363 5.6696429,13.79613 79.764707 0 0 12.5274,0.80563 5.6696429,13.79613 79.764707 0 0 9.55807,-3.54448 11.150297,10.205357 57.168475 0 0 11.16573,0.34158 11.150297,10.205357 57.168475 0 0 4.42402,-8.03052 91.848209,14.741072 0 0 0 5.40535,-4.92942 91.848209,14.741072 0 0 0 -2.83341,-3.52846 11.150297,9.8273811 0 0 0 0.49557,-2.89698 11.150297,9.8273811 0 0 0 -11.15022,-9.82731 11.150297,9.8273811 0 0 0 -8.06256,3.05563 7.7485117,7.5595236 16.567542 0 0 -0.29507,-0.0961 7.7485117,7.5595236 16.567542 0 0 -6.31796,0.8139 6.4255951,8.6934526 19.317248 0 0 -3.35638,-3.66231 6.4255951,8.6934526 19.317248 0 0 -7.27243,2.96726 8.5044639,14.552083 79.286393 0 0 -14.75982,-3.30832 8.5044639,14.552083 79.286393 0 0 -7.19853,2.63136 91.848209,14.741072 0 0 0 -1.51102,-0.0884 10.961307,8.5044639 0 0 0 -8.79739,-3.44734 10.961307,8.5044639 0 0 0 -8.11785,2.80448 91.848209,14.741072 0 0 0 -2.38435,-0.0579 20.032737,9.8273811 9.2781124 0 0 -10.59212,-3.37396 20.032737,9.8273811 9.2781124 0 0 -12.88655,0.15761 9.4494045,14.174107 71.290041 0 0 -8.54521,-3.51658 z"
       id="path965"
       inkscape:connector-curvature="0" />
    <text
       id="text893"
       y="172.3773"
       x="54.916698"
       style="font-style:normal;font-variant:normal;font-weight:normal;font-stretch:normal;font-size:6.3499999px;line-height:1.10000002;font-family:'DejaVu Sans';-inkscape-font-specification:'DejaVu Sans';text-align:start;letter-spacing:0px;word-spacing:0px;text-anchor:start;fill:#000000;fill-opacity:1;stroke:none;stroke-width:0.26458332"
       xml:space="preserve"><tspan
         id="tspan891"
         style="line-height:1.10000002;stroke-width:0.26458332"
         y="172.3773"
         x="54.916698"
         sodipodi:role="line">This Julia's not bad. I could do more of my analysis</tspan><tspan
         style="line-height:1.10000002;stroke-width:0.26458332"
         y="179.3623"
         x="54.916698"
         sodipodi:role="line"
         id="tspan904">in it. I should pester Jim to rewrite Awkward Array</tspan><tspan
         style="line-height:1.10000002;stroke-width:0.26458332"
         y="186.34731"
         x="54.916698"
         sodipodi:role="line"
         id="tspan906">in Julia...</tspan></text>
    <ellipse
       style="opacity:1;vector-effect:none;fill:#ffffff;fill-opacity:1;fill-rule:evenodd;stroke:#000000;stroke-width:0.5291667;stroke-linecap:butt;stroke-linejoin:miter;stroke-miterlimit:4;stroke-dasharray:none;stroke-dashoffset:0;stroke-opacity:1"
       id="path1022"
       cx="-29.689161"
       cy="157.70865"
       rx="6.0476193"
       ry="4.9136906"
       transform="rotate(-20.151089)" />
    <ellipse
       style="opacity:1;vector-effect:none;fill:#ffffff;fill-opacity:1;fill-rule:evenodd;stroke:#000000;stroke-width:0.5291667;stroke-linecap:butt;stroke-linejoin:miter;stroke-miterlimit:4;stroke-dasharray:none;stroke-dashoffset:0;stroke-opacity:1"
       id="path1024"
       cx="-28.739613"
       cy="166.03058"
       rx="4.3467264"
       ry="4.1577382"
       transform="rotate(-15.291118)" />
    <ellipse
       style="opacity:1;vector-effect:none;fill:#ffffff;fill-opacity:1;fill-rule:evenodd;stroke:#000000;stroke-width:0.5291667;stroke-linecap:butt;stroke-linejoin:miter;stroke-miterlimit:4;stroke-dasharray:none;stroke-dashoffset:0;stroke-opacity:1"
       id="path1026"
       cx="84.104202"
       cy="153.81241"
       rx="4.1577382"
       ry="3.2127976"
       transform="rotate(26.66185)" />
    <ellipse
       style="opacity:1;vector-effect:none;fill:#ffffff;fill-opacity:1;fill-rule:evenodd;stroke:#000000;stroke-width:0.5291667;stroke-linecap:butt;stroke-linejoin:miter;stroke-miterlimit:4;stroke-dasharray:none;stroke-dashoffset:0;stroke-opacity:1"
       id="path1028"
       cx="-102.93725"
       cy="147.85509"
       rx="3.2127976"
       ry="3.0238097"
       transform="rotate(-33.523373)" />
    <ellipse
       style="opacity:1;vector-effect:none;fill:#ffffff;fill-opacity:1;fill-rule:evenodd;stroke:#000000;stroke-width:0.5291667;stroke-linecap:butt;stroke-linejoin:miter;stroke-miterlimit:4;stroke-dasharray:none;stroke-dashoffset:0;stroke-opacity:1"
       id="path1030"
       cx="-101.31839"
       cy="153.4525"
       rx="2.4568453"
       ry="1.7008928"
       transform="rotate(-28.600731)" />
    <ellipse
       style="opacity:1;vector-effect:none;fill:#ffffff;fill-opacity:1;fill-rule:evenodd;stroke:#000000;stroke-width:0.5291667;stroke-linecap:butt;stroke-linejoin:miter;stroke-miterlimit:4;stroke-dasharray:none;stroke-dashoffset:0;stroke-opacity:1"
       id="path1032"
       cx="-47.766773"
       cy="191.99525"
       rx="4.7247024"
       ry="3.7797618"
       transform="rotate(-26.606387)" />
    <ellipse
       style="opacity:1;vector-effect:none;fill:#ffffff;fill-opacity:1;fill-rule:evenodd;stroke:#000000;stroke-width:0.5291667;stroke-linecap:butt;stroke-linejoin:miter;stroke-miterlimit:4;stroke-dasharray:none;stroke-dashoffset:0;stroke-opacity:1"
       id="path1034"
       cx="-28.075836"
       cy="198.47949"
       rx="3.5907736"
       ry="3.0238097"
       transform="rotate(-17.082704)" />
    <ellipse
       style="opacity:1;vector-effect:none;fill:#ffffff;fill-opacity:1;fill-rule:evenodd;stroke:#000000;stroke-width:0.5291667;stroke-linecap:butt;stroke-linejoin:miter;stroke-miterlimit:4;stroke-dasharray:none;stroke-dashoffset:0;stroke-opacity:1"
       id="path1036"
       cx="-27.75141"
       cy="200.90558"
       rx="2.2678571"
       ry="1.8898809"
       transform="rotate(-13.989417)" />
    <ellipse
       style="opacity:1;vector-effect:none;fill:#ffffff;fill-opacity:1;fill-rule:evenodd;stroke:#000000;stroke-width:0.5291667;stroke-linecap:butt;stroke-linejoin:miter;stroke-miterlimit:4;stroke-dasharray:none;stroke-dashoffset:0;stroke-opacity:1"
       id="path1038"
       cx="108.55294"
       cy="172.60071"
       rx="1.8898809"
       ry="1.7008928"
       transform="rotate(28.792653)" />
    <ellipse
       style="opacity:1;vector-effect:none;fill:#ffffff;fill-opacity:1;fill-rule:evenodd;stroke:#000000;stroke-width:0.5291667;stroke-linecap:butt;stroke-linejoin:miter;stroke-miterlimit:4;stroke-dasharray:none;stroke-dashoffset:0;stroke-opacity:1"
       id="path1040"
       cx="-72.889084"
       cy="191.88344"
       rx="1.8898809"
       ry="1.3229166"
       transform="rotate(-21.485657)" />
  </g>
</svg>
